<svg width="32" height="32" viewBox="0 0 32 32" fill="none" xmlns="http://www.w3.org/2000/svg">
<rect width="32" height="32" rx="16" fill="#FF929B"/>
<path fill-rule="evenodd" clip-rule="evenodd" d="M12.7279 18.577C12.9659 18.577 13.1961 18.6619 13.3771 18.8164L15.5099 20.6365C16.159 21.1904 17.159 20.7291 17.159 19.8758V18.5911C17.159 18.5833 17.1654 18.577 17.1732 18.577C17.1809 18.577 17.1873 18.5707 17.1873 18.5629V13.437C17.1873 13.4292 17.1809 13.4229 17.1732 13.4229C17.1654 13.4229 17.159 13.4166 17.159 13.4088V12.1242C17.159 11.2709 16.159 10.8096 15.5099 11.3636L13.3772 13.1836C13.1962 13.3381 12.966 13.4229 12.728 13.4229H10.2492C9.69689 13.4229 9.24918 13.8706 9.24918 14.4229V17.577C9.24918 18.1293 9.69689 18.577 10.2492 18.577H12.7279ZM21.5017 13.2983C21.6866 12.9782 22.0959 12.8685 22.416 13.0533C22.7361 13.2381 22.8458 13.6475 22.661 13.9676L21.3482 16.2413L22.661 18.5152C22.8458 18.8353 22.7362 19.2446 22.416 19.4294C22.0959 19.6142 21.6866 19.5046 21.5018 19.1844L20.5754 17.5799L19.6492 19.1841C19.4644 19.5043 19.0551 19.6139 18.7349 19.4291C18.4148 19.2443 18.3052 18.835 18.49 18.5149L19.8026 16.2413L18.49 13.9679C18.3052 13.6478 18.4149 13.2385 18.735 13.0536C19.0551 12.8688 19.4644 12.9785 19.6492 13.2986L20.5754 14.9028L21.5017 13.2983Z" fill="#5C00D0"/>
</svg>
