<svg width="32" height="33" viewBox="0 0 32 33" fill="none" xmlns="http://www.w3.org/2000/svg">
<rect y="0.538086" width="32" height="32" rx="16" fill="#5C00D0"/>
<path fill-rule="evenodd" clip-rule="evenodd" d="M16.1547 19.4436C15.9737 19.2891 15.7435 19.2043 15.5055 19.2043H12.8937C12.3414 19.2043 11.8937 18.7565 11.8937 18.2043V14.8719C11.8937 14.3196 12.3414 13.8719 12.8937 13.8719H15.5056C15.7436 13.8719 15.9737 13.7871 16.1547 13.6326L18.428 11.6927C19.0771 11.1387 20.0771 11.6 20.0771 12.4533V13.8573C20.0771 13.8654 20.0836 13.8719 20.0917 13.8719C20.0998 13.8719 20.1063 13.8784 20.1063 13.8865V19.1897C20.1063 19.1977 20.0998 19.2043 20.0917 19.2043C20.0836 19.2043 20.0771 19.2108 20.0771 19.2189V20.6229C20.0771 21.4762 19.0771 21.9375 18.428 21.3835L16.1547 19.4436Z" fill="#FF929B"/>
</svg>
