<svg width="900" height="363" viewBox="0 0 900 363" fill="none" xmlns="http://www.w3.org/2000/svg">
<path d="M0.0483806 41.9944V18.433C0.0483806 14.3207 2.10456 12.2887 6.19272 12.2887H116.888C121 12.2887 123.032 14.3448 123.032 18.433V42.0185C123.032 47.1469 120.976 50.2191 117.904 50.2191C115.847 50.2191 113.598 49.2031 110.719 43.0345C103.534 28.6897 96.3741 23.5613 80.9891 23.5613C71.5549 23.5613 67.6603 26.6335 67.6603 35.85V131.184C67.6603 137.328 70.5389 139.384 72.7886 140.4L78.9329 143.473C85.0773 146.545 86.1175 148.601 86.1175 150.657C86.1175 153.729 83.0453 155.786 77.9169 155.786H45.1149C39.9866 155.786 36.9144 153.729 36.9144 150.657C36.9144 148.601 37.9304 146.569 44.0989 143.473L50.2432 140.4C52.2994 139.384 55.3716 137.328 55.3716 131.184V35.85C55.3716 26.6335 51.477 23.5613 42.0427 23.5613C26.6577 23.5613 19.4974 28.6897 12.3129 43.0345C9.24069 49.1789 7.18452 50.2191 5.12834 50.2191C2.05617 50.2191 0 47.1469 0 42.0185L0.0483806 41.9944ZM112.799 143.473L118.944 140.4C121 139.384 124.072 137.328 124.072 131.184V85.0531C124.072 81.9809 123.056 79.9247 119.984 79.9247C116.912 79.9247 113.84 81.9809 110.767 81.9809C107.695 81.9809 105.639 79.9247 105.639 76.8526C105.639 74.7964 106.655 72.7644 109.751 69.6681L124.096 55.3232C127.168 52.251 129.225 51.2351 131.281 51.2351C134.353 51.2351 136.409 53.2912 136.409 56.3634V77.8928C136.409 79.7312 136.409 81.9809 138.465 81.9809C139.481 81.9809 140.521 81.3762 144.61 75.8366L150.754 67.6361C159.148 56.3634 167.155 51.2351 172.283 51.2351C176.371 51.2351 179.468 53.2912 179.468 57.3794C179.468 62.5077 174.339 67.2248 165.123 72.7644L151.794 80.9649C141.537 87.327 136.409 92.2376 136.409 103.51V131.184C136.409 137.328 139.481 139.384 141.537 140.4L147.682 143.473C153.826 146.545 154.866 148.601 154.866 150.657C154.866 153.729 151.794 155.786 146.666 155.786H113.864C108.735 155.786 105.663 153.729 105.663 150.657C105.663 148.601 106.679 146.569 112.848 143.473H112.799ZM179.395 150.657C179.395 148.601 180.411 146.569 186.58 143.473L192.724 140.4C194.78 139.384 197.852 137.328 197.852 131.184V85.0531C197.852 81.9809 196.836 79.9247 193.74 79.9247C190.644 79.9247 187.596 81.9809 184.524 81.9809C181.451 81.9809 179.395 79.9247 179.395 76.8526C179.395 74.7964 180.411 72.7644 183.508 69.6681L197.852 55.3232C200.925 52.251 202.981 51.2351 205.037 51.2351C208.109 51.2351 210.165 53.2912 210.165 56.3634V131.184C210.165 137.328 213.237 139.384 215.294 140.4L221.438 143.473C227.582 146.545 228.622 148.601 228.622 150.657C228.622 153.729 225.55 155.786 220.422 155.786H187.62C182.492 155.786 179.419 153.729 179.419 150.657H179.395ZM208.085 10.2325C213.213 10.2325 215.269 14.3207 215.269 19.449C215.269 27.6495 208.085 38.9222 199.884 38.9222C194.756 38.9222 192.7 34.834 192.7 29.7057C192.7 21.5052 199.884 10.2325 208.085 10.2325ZM236.775 28.6897C233.702 28.6897 230.63 30.7459 227.558 30.7459C224.486 30.7459 222.43 28.6897 222.43 25.6175C222.43 23.5613 223.446 21.5294 226.518 18.433L240.863 4.08816C243.935 1.01599 245.991 0 248.047 0C251.119 0 253.176 2.05618 253.176 5.12834V74.7964C253.176 77.0461 254.192 78.9088 256.248 78.9088C258.304 78.9088 261.376 75.8366 265.464 71.7242C279.809 57.3794 289.05 51.2351 299.282 51.2351C314.667 51.2351 320.812 62.5077 320.812 78.9088C320.812 109.655 290.066 157.842 262.392 157.842C247.007 157.842 240.863 143.497 240.863 127.096V33.7938C240.863 30.7217 239.847 28.6655 236.75 28.6655L236.775 28.6897ZM268.561 142.457C291.106 142.457 308.523 107.598 308.523 86.8916C308.523 75.8124 305.451 66.5959 293.138 66.5959C270.593 66.5959 253.151 101.454 253.151 121.943C253.151 133.216 256.224 142.432 268.536 142.432L268.561 142.457ZM328.02 76.8526C328.02 74.7964 329.036 72.7644 332.109 69.6681L346.453 55.3232C349.526 52.251 351.582 51.2351 353.638 51.2351C356.71 51.2351 358.766 53.2912 358.766 56.3634V121.967C358.766 133.24 361.838 142.457 374.151 142.457C399.358 142.457 407.969 105.566 407.969 85.0531C407.969 81.9809 406.953 79.9247 403.881 79.9247C400.809 79.9247 397.737 81.9809 394.665 81.9809C391.593 81.9809 389.536 79.9247 389.536 76.8526C389.536 74.7964 390.552 72.7644 393.649 69.6681L407.994 55.3232C411.066 52.251 413.122 51.2351 415.178 51.2351C418.25 51.2351 420.306 53.2912 420.306 56.3634V124.024C420.306 127.096 421.322 129.152 424.395 129.152C427.467 129.152 430.539 127.096 433.611 127.096C436.683 127.096 438.739 129.152 438.739 132.224C438.739 134.28 437.723 136.337 434.651 139.409L420.306 153.754C417.234 156.826 415.178 157.866 413.122 157.866C410.05 157.866 407.994 155.81 407.994 152.738V134.28C407.994 133.264 407.8 131.208 405.937 131.208C404.704 131.208 403.881 132.224 401.849 135.296C394.665 146.569 381.36 157.842 368.031 157.842C352.646 157.842 346.502 146.569 346.502 130.168V85.0773C346.502 82.0051 345.486 79.9489 342.414 79.9489C339.341 79.9489 336.269 82.0051 333.197 82.0051C330.125 82.0051 328.069 79.9489 328.069 76.8768L328.02 76.8526ZM438.715 69.6681L453.06 55.3232C456.132 52.251 458.188 51.2351 460.245 51.2351C463.317 51.2351 465.373 53.2912 465.373 56.3634V74.8206C465.373 75.8366 465.566 77.8928 467.429 77.8928C468.663 77.8928 469.485 76.8768 471.541 73.7804C478.726 62.5077 492.031 51.2351 505.359 51.2351C520.745 51.2351 526.889 62.5077 526.889 78.9088V131.184C526.889 137.328 529.961 139.384 532.017 140.4L538.162 143.473C544.306 146.545 545.346 148.601 545.346 150.657C545.346 153.729 542.274 155.786 537.146 155.786H504.344C499.215 155.786 496.143 153.729 496.143 150.657C496.143 148.601 497.159 146.569 503.328 143.473L509.472 140.4C511.528 139.384 514.6 137.328 514.6 131.184V87.1093C514.6 75.8366 511.528 66.6201 499.215 66.6201C474.009 66.6201 465.397 102.494 465.397 122.983V131.184C465.397 137.328 468.469 139.384 470.525 140.4L476.67 143.473C482.814 146.545 483.854 148.601 483.854 150.657C483.854 153.729 480.782 155.786 475.654 155.786H442.852C437.723 155.786 434.651 153.729 434.651 150.657C434.651 148.601 435.667 146.569 441.836 143.473L447.98 140.4C450.036 139.384 453.108 137.328 453.108 131.184V85.0531C453.108 81.9809 452.092 79.9247 449.02 79.9247C445.948 79.9247 442.876 81.9809 439.804 81.9809C436.732 81.9809 434.675 79.9247 434.675 76.8526C434.675 74.7964 435.691 72.7644 438.788 69.6681H438.715ZM543.266 107.598C543.266 91.1974 572.996 51.2351 598.613 51.2351C609.886 51.2351 617.07 57.3794 617.07 71.7242V123.999C617.07 127.072 618.086 129.128 621.183 129.128C624.279 129.128 627.327 127.072 630.399 127.072C633.471 127.072 635.527 129.128 635.527 132.2C635.527 134.256 634.511 136.312 631.415 139.385L617.07 153.729C613.998 156.802 611.942 157.842 609.886 157.842C606.814 157.842 604.757 155.786 604.757 152.713V134.256C604.757 133.24 604.757 131.184 602.701 131.184C601.468 131.184 600.645 132.2 598.589 135.272C593.678 142.457 583.615 157.817 568.859 157.817C557.175 157.817 549.386 149.206 549.386 139.36C549.386 124.798 559.643 117.831 571.931 111.687C592.42 101.43 604.733 92.2134 604.733 79.9006C604.733 71.7001 599.605 64.5155 589.348 64.5155C571.931 64.5155 565.763 82.9727 561.674 99.3737C559.618 107.574 556.546 115.775 550.402 115.775C546.289 115.775 543.217 112.703 543.217 107.574L543.266 107.598ZM576.068 142.457C586.929 142.457 601.492 128.112 604.346 105.978C604.757 102.906 603.935 101.261 602.508 101.261C601.492 101.261 600.258 101.865 598.613 103.317C583.228 116.234 565.811 120.54 565.811 132.224C565.811 137.957 569.294 142.481 576.068 142.481V142.457ZM637.584 18.433L651.929 4.08816C655.001 1.01599 657.057 0 659.113 0C662.185 0 664.241 2.05618 664.241 5.12834V131.184C664.241 137.328 667.314 139.384 669.37 140.4L675.514 143.473C681.658 146.545 682.699 148.601 682.699 150.657C682.699 153.729 679.626 155.786 674.498 155.786H641.696C636.568 155.786 633.495 153.729 633.495 150.657C633.495 148.601 634.511 146.569 640.68 143.473L646.824 140.4C648.88 139.384 651.953 137.328 651.953 131.184V33.7938C651.953 30.7217 650.937 28.6655 647.84 28.6655C644.744 28.6655 641.696 30.7217 638.624 30.7217C635.552 30.7217 633.495 28.6655 633.495 25.5933C633.495 23.5372 634.511 21.5052 637.608 18.4088L637.584 18.433ZM720.605 130.168C720.605 99.4221 751.351 51.2351 779.024 51.2351C783.33 51.2351 785.169 52.251 786.209 52.251C788.265 52.251 788.265 50.1949 788.265 48.1629V33.818C788.265 30.7459 787.249 28.6897 784.153 28.6897C781.056 28.6897 778.008 30.7459 774.936 30.7459C771.864 30.7459 769.808 28.6897 769.808 25.6175C769.808 23.5613 770.824 21.5294 773.92 18.433L788.265 4.08816C791.337 1.01599 793.393 0 795.45 0C798.522 0 800.578 2.05618 800.578 5.12834V123.999C800.578 127.072 801.594 129.128 804.69 129.128C807.787 129.128 810.835 127.072 813.907 127.072C816.979 127.072 819.035 129.128 819.035 132.2C819.035 134.256 818.019 136.312 814.947 139.385L800.602 153.729C797.53 156.802 795.474 157.842 793.418 157.842C790.345 157.842 788.289 155.786 788.289 152.713V134.256C788.289 132.006 787.273 130.168 785.217 130.168C783.161 130.168 780.089 133.24 776 137.353C761.656 151.697 752.415 157.842 742.182 157.842C726.797 157.842 720.653 146.569 720.653 130.168H720.605ZM732.918 122.161C732.918 133.24 735.99 142.457 748.278 142.457C770.824 142.457 788.265 107.598 788.265 87.1093C788.265 75.8366 785.193 66.6201 772.88 66.6201C750.335 66.6201 732.918 101.478 732.918 122.185V122.161ZM826.195 130.168C826.195 99.4221 856.941 51.2351 884.615 51.2351C893.831 51.2351 900 57.3794 900 66.6201C900 84.0371 882.583 96.35 862.07 106.607C845.669 114.807 838.484 119.935 838.484 128.136C838.484 135.321 843.612 140.425 852.829 140.425C864.102 140.425 874.358 131.208 880.503 121.967C884.615 115.823 886.647 112.751 888.703 112.751C890.13 112.751 890.759 113.767 890.759 115.823C890.759 131.208 870.27 157.842 848.741 157.842C833.38 157.842 826.195 146.569 826.195 130.168ZM850.797 101.261C860.013 101.261 885.655 88.1494 885.655 74.8206C885.655 69.6922 882.583 66.6201 877.455 66.6201C864.126 66.6201 844.653 85.8997 844.653 95.3098C844.653 99.3979 846.709 101.261 850.797 101.261ZM161.978 223.446L176.323 209.101C179.395 206.029 181.451 205.013 183.508 205.013C186.58 205.013 188.636 207.069 188.636 210.141V336.221C188.636 342.365 191.708 344.421 193.764 345.437L199.909 348.51C206.053 351.582 207.093 353.638 207.093 355.694C207.093 358.766 204.021 360.822 198.893 360.822H166.091C160.962 360.822 157.89 358.766 157.89 355.694C157.89 353.638 158.906 351.582 165.075 348.51L171.219 345.437C173.275 344.421 176.347 342.365 176.347 336.221V238.855C176.347 235.783 175.331 233.727 172.235 233.727C169.139 233.727 166.091 235.783 163.018 235.783C159.946 235.783 157.89 233.727 157.89 230.654C157.89 228.598 158.906 226.566 162.002 223.47L161.978 223.446ZM207.069 312.611C207.069 296.21 236.799 256.248 262.416 256.248C273.689 256.248 280.874 262.392 280.874 276.737V329.012C280.874 332.084 281.89 334.141 284.986 334.141C288.082 334.141 291.13 332.084 294.202 332.084C297.275 332.084 299.331 334.141 299.331 337.213C299.331 339.269 298.315 341.301 295.243 344.373L280.898 358.718C277.826 361.79 275.769 362.806 273.713 362.806C270.641 362.806 268.585 360.75 268.585 357.678V339.221C268.585 338.205 268.585 336.148 266.529 336.148C265.295 336.148 264.473 337.164 262.441 340.237C257.53 347.421 247.467 362.782 232.711 362.782C221.027 362.782 213.237 354.17 213.237 344.325C213.237 329.762 223.494 322.795 235.783 316.651C256.272 306.394 268.585 297.178 268.585 284.865C268.585 276.664 263.457 269.48 253.2 269.48C235.783 269.48 229.614 287.937 225.526 304.338C223.47 312.539 220.398 320.739 214.253 320.739C210.141 320.739 207.069 317.667 207.069 312.539V312.611ZM239.871 347.469C250.732 347.469 265.295 333.125 268.149 310.99C268.561 307.918 267.738 306.273 266.311 306.273C265.295 306.273 264.061 306.878 262.416 308.33C247.031 321.247 229.614 325.553 229.614 337.237C229.614 342.97 233.098 347.494 239.871 347.494V347.469ZM328.359 335.157C328.359 304.411 359.105 256.224 389.851 256.224C398.051 256.224 402.14 260.312 402.14 265.44C402.14 269.552 399.067 273.641 392.923 273.641C386.779 273.641 383.707 271.584 377.538 271.584C359.081 271.584 340.648 305.403 340.648 325.916C340.648 337.189 345.776 345.389 354.993 345.389C366.265 345.389 376.522 336.173 382.666 326.932C386.779 320.788 388.811 317.715 390.867 317.715C392.294 317.715 392.923 318.731 392.923 320.788C392.923 336.173 372.434 362.806 350.904 362.806C335.519 362.806 328.359 351.533 328.359 335.132V335.157ZM402.962 355.646C402.962 353.59 403.978 351.533 410.146 348.461L416.291 345.389C418.347 344.373 421.419 342.317 421.419 336.173V290.042C421.419 286.97 420.403 284.913 417.331 284.913C414.259 284.913 411.187 286.969 408.115 286.969C405.042 286.969 402.986 284.913 402.986 281.841C402.986 279.785 404.002 277.753 407.099 274.657L421.443 260.312C424.516 257.24 426.572 256.224 428.628 256.224C431.7 256.224 433.756 258.28 433.756 261.352V336.173C433.756 342.317 436.828 344.373 438.885 345.389L445.029 348.461C451.173 351.533 452.213 353.59 452.213 355.646C452.213 358.718 449.141 360.774 444.013 360.774H411.211C406.083 360.774 403.01 358.718 403.01 355.646H402.962ZM431.652 215.221C436.78 215.221 438.836 219.309 438.836 224.438C438.836 232.638 431.652 243.911 423.451 243.911C418.323 243.911 416.267 239.823 416.267 234.694C416.267 226.494 423.451 215.221 431.652 215.221ZM441.908 281.841C441.908 279.785 442.924 277.753 445.997 274.657L460.341 260.312C463.414 257.24 465.47 256.224 467.526 256.224C470.598 256.224 472.654 258.28 472.654 261.352V326.956C472.654 338.229 475.726 347.445 488.039 347.445C513.246 347.445 521.857 310.555 521.857 290.042C521.857 286.97 520.841 284.913 517.769 284.913C514.697 284.913 511.625 286.969 508.553 286.969C505.48 286.969 503.424 284.913 503.424 281.841C503.424 279.785 504.44 277.753 507.537 274.657L521.881 260.312C524.954 257.24 527.01 256.224 529.066 256.224C532.138 256.224 534.194 258.28 534.194 261.352V329.012C534.194 332.084 535.21 334.141 538.283 334.141C541.355 334.141 544.427 332.084 547.499 332.084C550.571 332.084 552.627 334.141 552.627 337.213C552.627 339.269 551.611 341.301 548.539 344.373L534.194 358.718C531.122 361.79 529.066 362.806 527.01 362.806C523.938 362.806 521.881 360.75 521.881 357.678V339.221C521.881 338.205 521.688 336.148 519.825 336.148C518.592 336.148 517.769 337.164 515.737 340.237C508.553 351.509 495.248 362.782 481.919 362.782C466.534 362.782 460.39 351.509 460.39 335.108V290.017C460.39 286.945 459.374 284.889 456.302 284.889C453.229 284.889 450.157 286.945 447.085 286.945C444.013 286.945 441.957 284.889 441.957 281.817L441.908 281.841ZM542.371 265.44C542.371 263.384 543.387 261.352 546.459 258.256L560.804 243.911C563.876 240.839 565.932 239.823 567.988 239.823C571.06 239.823 573.117 241.879 573.117 244.951V253.151C573.117 256.224 574.133 258.28 577.205 258.28H604.878C607.951 258.28 610.007 259.102 610.007 261.352C610.007 265.44 603.862 270.568 591.55 270.568H577.205C574.133 270.568 573.117 272.625 573.117 275.697V330.028C573.117 339.245 576.189 346.429 585.429 346.429C591.791 346.429 595.686 343.357 599.774 339.051C603.862 334.939 604.903 334.141 606.959 334.141C609.62 334.141 610.031 336.197 610.031 337.213C610.224 345.413 593.63 362.83 579.285 362.83C566.996 362.83 560.828 354.436 560.828 339.269V275.721C560.828 272.649 559.812 270.593 556.74 270.593H547.523C544.451 270.593 542.395 268.536 542.395 265.464L542.371 265.44ZM611.7 312.587C611.7 296.186 641.43 256.224 667.047 256.224C678.32 256.224 685.505 262.368 685.505 276.713V328.988C685.505 332.06 686.521 334.116 689.617 334.116C692.713 334.116 695.761 332.06 698.833 332.06C701.906 332.06 703.962 334.116 703.962 337.189C703.962 339.245 702.946 341.277 699.849 344.349L685.505 358.694C682.432 361.766 680.376 362.782 678.32 362.782C675.248 362.782 673.192 360.726 673.192 357.654V339.196C673.192 338.18 673.192 336.124 671.136 336.124C669.902 336.124 669.079 337.14 667.023 340.212C662.113 347.397 652.049 362.758 637.293 362.758C625.609 362.758 617.82 354.146 617.82 344.301C617.82 329.738 628.077 322.771 640.366 316.627C660.855 306.37 673.168 297.154 673.168 284.841C673.168 276.64 668.039 269.456 657.783 269.456C640.365 269.456 634.197 287.913 630.109 304.314C628.053 312.514 624.981 320.715 618.836 320.715C614.724 320.715 611.652 317.643 611.652 312.514L611.7 312.587ZM644.502 347.445C655.364 347.445 669.926 333.1 672.805 310.966C673.216 307.894 672.393 306.249 670.966 306.249C669.95 306.249 668.717 306.854 667.072 308.305C651.711 321.223 634.27 325.529 634.27 337.213C634.27 342.946 637.753 347.469 644.526 347.469L644.502 347.445ZM693.705 265.44C693.705 263.384 694.721 261.352 697.818 258.256L712.162 243.911C715.234 240.839 717.291 239.823 719.347 239.823C722.419 239.823 724.475 241.879 724.475 244.951V253.151C724.475 256.224 725.491 258.28 728.563 258.28H756.237C759.309 258.28 761.365 259.102 761.365 261.352C761.365 265.44 755.221 270.568 742.908 270.568H728.563C725.491 270.568 724.475 272.625 724.475 275.697V330.028C724.475 339.245 727.547 346.429 736.764 346.429C743.126 346.429 747.021 343.357 751.109 339.051C755.197 334.939 756.237 334.141 758.293 334.141C760.954 334.141 761.365 336.197 761.365 337.213C761.583 345.413 744.964 362.83 730.62 362.83C718.331 362.83 712.162 354.436 712.162 339.269V275.721C712.162 272.649 711.146 270.593 708.074 270.593H698.858C695.786 270.593 693.729 268.536 693.729 265.464L693.705 265.44Z" fill="white"/>
</svg>
